<svg xmlns="http://www.w3.org/2000/svg" width="24" height="24" fill="none" viewBox="0 0 24 24">
  <path fill="currentColor" fill-rule="evenodd" d="M12 20a8 8 0 1 0 0-16 8 8 0 0 0 0 16Zm0 2c5.523 0 10-4.477 10-10S17.523 2 12 2 2 6.477 2 12s4.477 10 10 10Z" clip-rule="evenodd"/>
  <circle cx="12" cy="18" r="1" fill="currentColor"/>
  <path fill="currentColor" fill-rule="evenodd" d="M12 8a2 2 0 0 0-1.886 1.333 1 1 0 1 1-1.886-.666A4.001 4.001 0 1 1 13 13.874V15a1 1 0 1 1-2 0v-2a1 1 0 0 1 1-1 2 2 0 1 0 0-4Z" clip-rule="evenodd"/>
</svg>
