<svg xmlns="http://www.w3.org/2000/svg" width="24" height="24" fill="none" viewBox="0 0 24 24">
  <path fill="currentColor" fill-rule="evenodd" d="M12 17c4.112 0 6.587-3.067 7.683-4.895a.2.2 0 0 0 .032-.105.2.2 0 0 0-.032-.105C18.587 10.067 16.112 7 12 7s-6.587 3.067-7.683 4.895a.2.2 0 0 0-.032.105.2.2 0 0 0 .032.105C5.413 13.933 7.888 17 12 17Zm9.398-3.867C20.21 15.115 17.215 19 12 19s-8.21-3.885-9.398-5.867a2.186 2.186 0 0 1 0-2.266C3.79 8.885 6.785 5 12 5s8.21 3.885 9.398 5.867a2.186 2.186 0 0 1 0 2.266Z" clip-rule="evenodd"/>
  <path fill="currentColor" fill-rule="evenodd" d="M12 13a1 1 0 1 0 0-2 1 1 0 0 0 0 2Zm0 2a3 3 0 1 0 0-6 3 3 0 0 0 0 6Z" clip-rule="evenodd"/>
</svg>
