<svg width="24" height="24" viewBox="0 0 24 24" fill="none" xmlns="http://www.w3.org/2000/svg"><path fill-rule="evenodd" clip-rule="evenodd" d="M11.2452 4.86215L13.5111 9.08104L10.4239 11.0624C9.76468 11.4855 9.54197 12.3445 9.91258 13.0345L11.2215 15.4716C11.4567 15.9095 12.0023 16.0738 12.4402 15.8386C12.8781 15.6035 13.0424 15.0578 12.8072 14.6199L11.6297 12.4274L14.7169 10.446C15.3761 10.0229 15.5988 9.16391 15.2282 8.47387L13.149 4.60262C14.0464 4.06192 15.1034 3.75 16.2348 3.75C19.4879 3.75 22.1251 6.3286 22.1251 9.50947C22.1251 11.3158 21.2747 12.9278 19.944 13.9838L13.4696 19.8127C12.7153 20.4918 11.5727 20.5006 10.8079 19.8334L4.37016 14.2165C2.86067 13.1737 1.875 11.4541 1.875 9.50947C1.875 6.3286 4.51216 3.75 7.76527 3.75C9.06707 3.75 10.2702 4.16293 11.2452 4.86215Z" fill="#FF4B4B"/></svg>