<svg width="41" height="31" viewBox="0 0 41 31" fill="none" xmlns="http://www.w3.org/2000/svg"><path d="M38.9127 1.58582C37.8947 0.570305 36.5156 0 35.0777 0C33.6398 0 32.2606 0.570305 31.2427 1.58582L14.4527 17.2758L9.45269 12.2758C8.9587 11.731 8.3592 11.2922 7.69053 10.986C7.02186 10.6799 6.29796 10.5127 5.56275 10.4948C4.82754 10.4768 4.09634 10.6083 3.4135 10.8814C2.73067 11.1546 2.11044 11.5635 1.59041 12.0836C1.07039 12.6036 0.66142 13.2238 0.388311 13.9067C0.115203 14.5895 -0.0163565 15.3207 0.00162305 16.0559C0.0196026 16.7911 0.186735 17.515 0.492895 18.1837C0.799055 18.8523 1.23785 19.4518 1.78267 19.9458L10.2627 28.4258C11.3286 29.4585 12.7455 30.05 14.2293 30.0815C15.7131 30.113 17.1539 29.5823 18.2627 28.5958L38.9327 9.27583C39.4372 8.77009 39.837 8.16977 40.1091 7.50926C40.3812 6.84875 40.5204 6.14104 40.5185 5.42667C40.5167 4.71231 40.3739 4.00533 40.0983 3.34624C39.8227 2.68716 39.4198 2.08893 38.9127 1.58582V1.58582Z" fill="#CD7900"/></svg>