<svg width="24" height="24" viewBox="0 0 24 24" fill="none" xmlns="http://www.w3.org/2000/svg"><path d="M8.72846 1.85858L9.7184 2V2L8.72846 1.85858ZM8.36405 4.40942L8.75679 5.32908L9.2744 5.10803L9.354 4.55085L8.36405 4.40942ZM6.64796 5.402L6.27546 6.33004L6.7985 6.53998L7.24896 6.20126L6.64796 5.402ZM4.25527 4.44161L3.88277 5.36964H3.88277L4.25527 4.44161ZM3.01675 4.86964L2.15072 4.36964H2.15072L3.01675 4.86964ZM1.13404 8.13058L2.00007 8.63058H2.00007L1.13404 8.13058ZM1.38262 9.41719L2.00007 8.63058L1.38262 9.41719ZM3.41036 11.0089L4.40327 11.1277L4.47012 10.5694L4.02781 10.2223L3.41036 11.0089ZM3.41041 12.9916L4.02786 13.7782L4.4702 13.431L4.40332 12.8726L3.41041 12.9916ZM1.38262 14.5833L2.00007 15.3699L1.38262 14.5833ZM1.13404 15.8699L2.00007 15.3699H2.00007L1.13404 15.8699ZM3.01675 19.1308L2.15072 19.6308H2.15072L3.01675 19.1308ZM4.25527 19.5589L3.88277 18.6308H3.88277L4.25527 19.5589ZM6.64839 18.5983L7.24933 17.799L6.79889 17.4604L6.27589 17.6703L6.64839 18.5983ZM8.36405 19.5906L9.354 19.4492L9.2744 18.892L8.75679 18.6709L8.36405 19.5906ZM8.72846 22.1414L7.73851 22.2828L8.72846 22.1414ZM14.4738 22.1414L13.4838 22V22L14.4738 22.1414ZM14.8381 19.5909L14.4455 18.6712L13.9278 18.8922L13.8482 19.4494L14.8381 19.5909ZM16.5549 18.598L16.9274 17.6699L16.4044 17.46L15.9539 17.7987L16.5549 18.598ZM18.9482 19.5586L19.3208 18.6306H19.3207L18.9482 19.5586ZM20.1868 19.1306L21.0528 19.6306L20.1868 19.1306ZM22.0695 15.8696L21.2035 15.3696L22.0695 15.8696ZM21.8209 14.583L22.4384 13.7964H22.4384L21.8209 14.583ZM19.7925 12.9909L18.7996 12.872L18.7328 13.4303L19.1751 13.7775L19.7925 12.9909ZM19.7926 11.0096L19.1751 10.223L18.7329 10.5701L18.7997 11.1284L19.7926 11.0096ZM21.8209 9.41746L22.4384 10.2041H22.4384L21.8209 9.41746ZM22.0695 8.13085L21.2035 8.63085L22.0695 8.13085ZM20.1868 4.86991L19.3207 5.36991L20.1868 4.86991ZM18.9482 4.44188L18.5758 3.51384V3.51384L18.9482 4.44188ZM16.5554 5.40235L15.9543 6.20156L16.4048 6.54034L16.9279 6.33038L16.5554 5.40235ZM14.8381 4.40913L13.8482 4.55055L13.9278 5.10779L14.4455 5.32881L14.8381 4.40913ZM14.4738 1.85858L13.4838 2V2L14.4738 1.85858ZM9.7184 2V2V0C8.7231 0 7.87926 0.73186 7.73851 1.71716L9.7184 2ZM9.354 4.55085L9.7184 2L7.73851 1.71716L7.3741 4.268L9.354 4.55085ZM7.24896 6.20126C7.71204 5.85304 8.21782 5.55924 8.75679 5.32908L7.97131 3.48977C7.2826 3.78389 6.63718 4.15894 6.04697 4.60275L7.24896 6.20126ZM3.88277 5.36964L6.27546 6.33004L7.02046 4.47397L4.62777 3.51358L3.88277 5.36964ZM3.88277 5.36964H3.88277L4.62777 3.51358C3.7041 3.14283 2.64837 3.50768 2.15072 4.36964L3.88277 5.36964ZM2.00007 8.63058L3.88277 5.36964L2.15072 4.36964L0.268015 7.63058L2.00007 8.63058ZM2.00007 8.63058H2.00007L0.268015 7.63058C-0.229635 8.49254 -0.0177464 9.58925 0.765168 10.2038L2.00007 8.63058ZM4.02781 10.2223L2.00007 8.63058L0.765168 10.2038L2.79291 11.7955L4.02781 10.2223ZM4.35143 12C4.35143 11.7044 4.36907 11.4133 4.40327 11.1277L2.41745 10.89C2.37383 11.2543 2.35143 11.6247 2.35143 12H4.35143ZM4.40332 12.8726C4.36909 12.5869 4.35143 12.2957 4.35143 12H2.35143C2.35143 12.3754 2.37385 12.746 2.41751 13.1105L4.40332 12.8726ZM2.00007 15.3699L4.02786 13.7782L2.79296 12.205L0.765168 13.7967L2.00007 15.3699ZM2.00007 15.3699H2.00007L0.765168 13.7967C-0.0177464 14.4112 -0.229635 15.508 0.268015 16.3699L2.00007 15.3699ZM3.88277 18.6308L2.00007 15.3699L0.268015 16.3699L2.15072 19.6308L3.88277 18.6308ZM3.88277 18.6308H3.88277L2.15072 19.6308C2.64837 20.4928 3.7041 20.8577 4.62777 20.4869L3.88277 18.6308ZM6.27589 17.6703L3.88277 18.6308L4.62777 20.4869L7.02089 19.5263L6.27589 17.6703ZM8.75679 18.6709C8.21796 18.4408 7.71231 18.1471 7.24933 17.799L6.04744 19.3976C6.63753 19.8413 7.28278 20.2162 7.97131 20.5102L8.75679 18.6709ZM9.7184 22L9.354 19.4492L7.3741 19.732L7.73851 22.2828L9.7184 22ZM9.7184 22L7.73851 22.2828C7.87926 23.2681 8.7231 24 9.7184 24V22ZM13.4838 22H9.7184V24H13.4838V22ZM13.4838 22L13.4838 22V24C14.4791 24 15.323 23.2681 15.4637 22.2828L13.4838 22ZM13.8482 19.4494L13.4838 22L15.4637 22.2828L15.8281 19.7323L13.8482 19.4494ZM15.9539 17.7987C15.4907 18.1471 14.9847 18.441 14.4455 18.6712L15.2308 20.5106C15.9198 20.2164 16.5655 19.8412 17.1559 19.3972L15.9539 17.7987ZM19.3207 18.6306L16.9274 17.6699L16.1824 19.526L18.5758 20.4866L19.3207 18.6306ZM19.3208 18.6306L18.5758 20.4866C19.4994 20.8574 20.5552 20.4925 21.0528 19.6306L19.3208 18.6306ZM21.2035 15.3696L19.3207 18.6306L21.0528 19.6306L22.9355 16.3696L21.2035 15.3696ZM21.2035 15.3696H21.2035L22.9355 16.3696C23.4332 15.5077 23.2213 14.411 22.4384 13.7964L21.2035 15.3696ZM19.1751 13.7775L21.2035 15.3696L22.4384 13.7964L20.41 12.2043L19.1751 13.7775ZM18.8514 12C18.8514 12.2955 18.8338 12.5865 18.7996 12.872L20.7855 13.1097C20.8291 12.7455 20.8514 12.3751 20.8514 12H18.8514ZM18.7997 11.1284C18.8338 11.4138 18.8514 11.7046 18.8514 12H20.8514C20.8514 11.625 20.8291 11.2548 20.7855 10.8908L18.7997 11.1284ZM21.2035 8.63085L19.1751 10.223L20.41 11.7962L22.4384 10.2041L21.2035 8.63085ZM21.2035 8.63085L21.2035 8.63085L22.4384 10.2041C23.2213 9.58952 23.4332 8.4928 22.9355 7.63085L21.2035 8.63085ZM19.3207 5.36991L21.2035 8.63085L22.9355 7.63085L21.0528 4.36991L19.3207 5.36991ZM19.3207 5.36991V5.36991L21.0528 4.36991C20.5552 3.50795 19.4994 3.14309 18.5758 3.51384L19.3207 5.36991ZM16.9279 6.33038L19.3207 5.36991L18.5758 3.51384L16.1829 4.47432L16.9279 6.33038ZM14.4455 5.32881C14.9848 5.55909 15.4909 5.85308 15.9543 6.20156L17.1564 4.60314C16.5658 4.15899 15.92 3.78369 15.2308 3.48944L14.4455 5.32881ZM13.4838 2L13.8482 4.55055L15.8281 4.26771L15.4637 1.71716L13.4838 2ZM13.4838 2L13.4838 2L15.4637 1.71716C15.323 0.73186 14.4791 0 13.4838 0V2ZM9.7184 2H13.4838V0H9.7184V2ZM14.2678 11.9999C14.2678 13.4727 13.0739 14.6666 11.6011 14.6666V16.6666C14.1784 16.6666 16.2678 14.5772 16.2678 11.9999H14.2678ZM11.6011 9.33325C13.0739 9.33325 14.2678 10.5272 14.2678 11.9999H16.2678C16.2678 9.42259 14.1784 7.33325 11.6011 7.33325V9.33325ZM8.93444 11.9999C8.93444 10.5272 10.1284 9.33325 11.6011 9.33325V7.33325C9.02378 7.33325 6.93444 9.42259 6.93444 11.9999H8.93444ZM11.6011 14.6666C10.1284 14.6666 8.93444 13.4727 8.93444 11.9999H6.93444C6.93444 14.5772 9.02378 16.6666 11.6011 16.6666V14.6666Z" fill="#AFAFAF"/></svg>