<svg width="20" height="20" viewBox="0 0 20 20" fill="none" xmlns="http://www.w3.org/2000/svg"><path d="M2.62126 0.792893C2.23074 0.402369 1.59757 0.402369 1.20705 0.792893C0.816525 1.18342 0.816525 1.81658 1.20705 2.20711L8.58588 9.58594L0.793137 17.3787C0.402613 17.7692 0.402613 18.4024 0.793137 18.7929C1.18366 19.1834 1.81683 19.1834 2.20735 18.7929L10.0001 11.0002L17.7928 18.7929C18.1834 19.1834 18.8165 19.1834 19.207 18.7929C19.5976 18.4024 19.5976 17.7692 19.207 17.3787L11.4143 9.58594L18.7931 2.20711C19.1837 1.81658 19.1837 1.18342 18.7931 0.792893C18.4026 0.402369 17.7694 0.402369 17.3789 0.792893L10.0001 8.17172L2.62126 0.792893Z" fill="#AFAFAF"/></svg>