<svg width="27" height="19" viewBox="0 0 27 19" version="1.1" xmlns="http://www.w3.org/2000/svg"><title>Group 8</title><g stroke="none" stroke-width="1" fill="none" fill-rule="evenodd"><g><g><g><g transform="translate(2 2)"><rect stroke="#AFAFAF" stroke-width="2" x="-1" y="-1" width="25" height="17" rx="1.28"/><rect fill="#AFAFAF" x="6" y="10" width="11" height="3" rx="1"/><path d="M3 6h1a1 1 0 0 1 1 1v1a1 1 0 0 1-1 1H3a1 1 0 0 1-1-1V7a1 1 0 0 1 1-1zM3 10h1a1 1 0 0 1 1 1v1a1 1 0 0 1-1 1H3a1 1 0 0 1-1-1v-1a1 1 0 0 1 1-1zM7 6h1a1 1 0 0 1 1 1v1a1 1 0 0 1-1 1H7a1 1 0 0 1-1-1V7a1 1 0 0 1 1-1zM11 6h1a1 1 0 0 1 1 1v1a1 1 0 0 1-1 1h-1a1 1 0 0 1-1-1V7a1 1 0 0 1 1-1zM15 6h1a1 1 0 0 1 1 1v1a1 1 0 0 1-1 1h-1a1 1 0 0 1-1-1V7a1 1 0 0 1 1-1z" fill="#AFAFAF"/><rect fill="#AFAFAF" x="18" y="6" width="3" height="3" rx="1"/><rect fill="#AFAFAF" x="18" y="10" width="3" height="3" rx="1"/><path d="M3 2h1a1 1 0 0 1 1 1v1a1 1 0 0 1-1 1H3a1 1 0 0 1-1-1V3a1 1 0 0 1 1-1zM7 2h1a1 1 0 0 1 1 1v1a1 1 0 0 1-1 1H7a1 1 0 0 1-1-1V3a1 1 0 0 1 1-1zM11 2h1a1 1 0 0 1 1 1v1a1 1 0 0 1-1 1h-1a1 1 0 0 1-1-1V3a1 1 0 0 1 1-1zM15 2h1a1 1 0 0 1 1 1v1a1 1 0 0 1-1 1h-1a1 1 0 0 1-1-1V3a1 1 0 0 1 1-1z" fill="#AFAFAF"/><rect fill="#AFAFAF" x="18" y="2" width="3" height="3" rx="1"/></g></g></g></g></g></svg>