<?xml version="1.0" encoding="UTF-8" standalone="no"?>
<svg
   width="28"
   height="25"
   viewBox="0 0 28 25"
   fill="none"
   version="1.1"
   id="svg3"
   sodipodi:docname="target-red.svg"
   inkscape:version="1.3.2 (091e20e, 2023-11-25)"
   xmlns:inkscape="http://www.inkscape.org/namespaces/inkscape"
   xmlns:sodipodi="http://sodipodi.sourceforge.net/DTD/sodipodi-0.dtd"
   xmlns="http://www.w3.org/2000/svg"
   xmlns:svg="http://www.w3.org/2000/svg">
  <defs
     id="defs3" />
  <sodipodi:namedview
     id="namedview3"
     pagecolor="#ffffff"
     bordercolor="#000000"
     borderopacity="0.25"
     inkscape:showpageshadow="2"
     inkscape:pageopacity="0.0"
     inkscape:pagecheckerboard="0"
     inkscape:deskcolor="#d1d1d1"
     inkscape:zoom="9.44"
     inkscape:cx="14.036017"
     inkscape:cy="12.552966"
     inkscape:window-width="1312"
     inkscape:window-height="862"
     inkscape:window-x="0"
     inkscape:window-y="38"
     inkscape:window-maximized="0"
     inkscape:current-layer="svg3" />
  <circle
     cx="11.97"
     cy="13.1049"
     r="10.2515"
     fill="#ECFFDE"
     stroke="#58CC02"
     stroke-width="2.56286"
     id="circle1"
     style="stroke:#ec5a53;stroke-opacity:1;fill:#f9cac9;fill-opacity:1" />
  <circle
     cx="11.9698"
     cy="13.1051"
     r="5.12573"
     fill="#ECFFDE"
     stroke="#58CC02"
     stroke-width="2.56286"
     id="circle2"
     style="stroke:#ec5a53;stroke-opacity:1;fill:#f9cac9;fill-opacity:1" />
  <path
     fill-rule="evenodd"
     clip-rule="evenodd"
     d="M22.9921 3.68332L18.3169 7.28868L17.6234 3.7791C17.6083 3.5661 17.6399 3.31705 17.8269 3.17283L21.4735 0.36065C21.754 0.144328 22.0859 0.187975 22.3032 0.469767C22.3757 0.563698 22.4119 0.610665 22.4014 0.693684L22.9921 3.68332Z"
     fill="#58A700"
     id="path2"
     style="fill:#e8322c;fill-opacity:1" />
  <path
     fill-rule="evenodd"
     clip-rule="evenodd"
     d="M23.716 4.62254L19.0408 8.2279L22.2589 9.79058C22.461 9.85937 22.7099 9.89211 22.8969 9.74789L26.5436 6.93571C26.8241 6.71939 26.8662 6.38731 26.6489 6.10552C26.5765 6.01159 26.5403 5.96463 26.4573 5.95372L23.716 4.62254Z"
     fill="#58A700"
     id="path3"
     style="fill:#e8322c;fill-opacity:1" />
  <rect
     x="10.9226"
     y="12.8574"
     width="15.4949"
     height="1.70928"
     rx="0.854642"
     transform="rotate(-37.6382 10.9226 12.8574)"
     fill="#478700"
     id="rect3"
     style="fill:#dd2119;fill-opacity:1" />
</svg>
